Coordinates
version=1
nRows=17
nColumns=24
inDegrees=yes

Units are S.I. units (second, meters, Newtons, ...)
Angles are in degrees.

endheader
time	pelvis_tilt	pelvis_list	pelvis_rotation	pelvis_tx	pelvis_ty	pelvis_tz	hip_flexion_r	hip_adduction_r	hip_rotation_r	knee_angle_r	ankle_angle_r	subtalar_angle_r	mtp_angle_r	hip_flexion_l	hip_adduction_l	hip_rotation_l	knee_angle_l	ankle_angle_l	subtalar_angle_l	mtp_angle_l	lumbar_extension	lumbar_bending	lumbar_rotation
      1.31300000	     -3.65472074	      4.49659737	     -2.12378964	      0.17986270	      0.90473270	      0.35915824	     18.83583468	     -7.83083510	     -9.75668059	    -72.49048899	     -5.21220147	      3.65065216	     11.71545551	     14.74774195	      7.95660874	     -6.96567315	    -18.99448563	      8.95351940	     -5.35772376	      4.41698425	     -2.61811629	     -7.58889108	      3.06553019
      1.31716667	     -3.71537663	      4.38714101	     -1.89696868	      0.18490373	      0.90553662	      0.35874624	     19.52805908	     -7.69274355	     -9.85197578	    -72.28859475	     -4.43643276	      3.73762697	     11.67129608	     14.24361109	      7.93964949	     -6.67135179	    -18.58577090	      8.99687908	     -5.30284694	      4.41795513	     -2.62274598	     -7.45953964	      2.85731229
      1.32133333	     -3.74799172	      4.29130206	     -1.68505850	      0.19000116	      0.90639127	      0.35831208	     20.17055290	     -7.57789820	     -9.92326937	    -72.00495952	     -3.71302055	      3.99621784	     11.59793270	     13.66639630	      7.94774960	     -6.33423508	    -18.08723358	      9.02944753	     -5.34590679	      4.41356856	     -2.61229557	     -7.34683492	      2.50133484
      1.32550000	     -3.77339250	      4.17286844	     -1.45397101	      0.19506375	      0.90724976	      0.35787887	     20.78039154	     -7.43266294	    -10.00205843	    -71.63775839	     -3.01442983	      4.17614778	     11.53411822	     13.09526915	      7.92537182	     -5.99402274	    -17.61636593	      9.04943797	     -5.36171712	      4.40696456	     -2.63441756	     -7.20292032	      2.21936659
      1.32966667	     -3.77694135	      4.05041708	     -1.21820806	      0.20012030	      0.90813597	      0.35743497	     21.34528981	     -7.28461661	    -10.07445401	    -71.19226900	     -2.35377791	      4.37297499	     11.46628558	     12.49405959	      7.89764260	     -5.64240162	    -17.12824547	      9.05170125	     -5.39146952	      4.39549888	     -2.68329719	     -7.05942574	      1.91822609
      1.33383333	     -3.76806208	      3.91644754	     -0.98148617	      0.20516718	      0.90902965	      0.35699653	     21.87593475	     -7.12308232	    -10.14275337	    -70.66795085	     -1.72859107	      4.56943956	     11.40639217	     11.87891067	      7.85080903	     -5.29527836	    -16.63750443	      9.05945233	     -5.40949134	      4.38175418	     -2.74544256	     -6.89720830	      1.63681800
      1.33800000	     -3.75674509	      3.75757350	     -0.73338894	      0.21018212	      0.90991507	      0.35657334	     22.37867838	     -6.92640121	    -10.20996567	    -70.05973132	     -1.12073349	      4.71434559	     11.37725831	     11.28010933	      7.76455778	     -4.96878714	    -16.18363224	      9.05425144	     -5.36679664	      4.37224211	     -2.82544386	     -6.71158995	      1.43254076
      1.34216667	     -3.70569074	      3.64189403	     -0.49924373	      0.21524124	      0.91083205	      0.35610508	     22.82676077	     -6.79753433	    -10.26417887	    -69.40079330	     -0.56759463	      4.91736224	     11.28536437	     10.58572296	      7.74065833	     -4.57154474	    -15.61219347	      9.00199512	     -5.50501515	      4.33976389	     -2.91962589	     -6.56903802	      1.02435090
      1.34633333	     -3.64854427	      3.48976652	     -0.25923205	      0.22025688	      0.91174121	      0.35566386	     23.24223456	     -6.61690030	    -10.31482928	    -68.65355501	     -0.04316163	      5.08813096	     11.19987252	      9.91373464	      7.65874321	     -4.22044892	    -15.09972983	      8.99188611	     -5.53504216	      4.30590828	     -3.04185177	     -6.37616272	      0.75489889
      1.35050000	     -3.58875456	      3.30397307	     -0.01045491	      0.22526768	      0.91264149	      0.35525419	     23.62224921	     -6.39432467	    -10.37510661	    -67.81462390	      0.44687563	      5.21233660	     11.17794561	      9.26398750	      7.52117518	     -3.92534203	    -14.64168304	      9.01370875	     -5.45961432	      4.29478029	     -3.15911432	     -6.15203978	      0.59776064
      1.35466667	     -3.48076479	      3.17703184	      0.21617744	      0.23029466	      0.91356063	      0.35480681	     23.94774902	     -6.24951543	    -10.40538460	    -66.94363425	      0.90133617	      5.34476086	     11.10190444	      8.50733755	      7.46209556	     -3.55032575	    -14.05775378	      8.96335019	     -5.56854531	      4.25683389	     -3.33059160	     -5.99094441	      0.20817689
      1.35883333	     -3.37551842	      3.00319668	      0.44699573	      0.23530628	      0.91445803	      0.35439119	     24.24384387	     -6.04524965	    -10.44441021	    -65.97726971	      1.29504296	      5.43568346	     11.05883931	      7.78939848	      7.33016746	     -3.24746974	    -13.55068610	      8.99258060	     -5.54802848	      4.23500044	     -3.49603083	     -5.76619348	      0.00513496
      1.36300000	     -3.28091398	      2.82010889	      0.68708059	      0.24028603	      0.91531013	      0.35399756	     24.52812141	     -5.82472183	    -10.47995548	    -64.93907277	      1.69642086	      5.46831933	     11.03072223	      7.10103137	      7.17643706	     -2.96132651	    -13.07013826	      8.96447642	     -5.50549703	      4.21901559	     -3.65456852	     -5.53978163	     -0.18925140
      1.36716667	     -3.13561947	      2.67924557	      0.89600415	      0.24529468	      0.91617486	      0.35359808	     24.75150501	     -5.65612138	    -10.48885611	    -63.86210340	      2.00988359	      5.47304990	     10.97780046	      6.31440236	      7.07264384	     -2.64041282	    -12.49798344	      8.96248049	     -5.55509916	      4.19262137	     -3.85978095	     -5.34987830	     -0.49499075
      1.37133333	     -3.02815181	      2.50189518	      1.12895387	      0.25026690	      0.91695775	      0.35321211	     24.98331866	     -5.44155051	    -10.50926293	    -62.70085406	      2.33675238	      5.42851050	     10.94342419	      5.61673092	      6.91117919	     -2.37201830	    -12.01802893	      8.92917859	     -5.52563223	      4.17530819	     -4.02849899	     -5.12571060	     -0.68522356
      1.37550000	     -2.89288536	      2.34403612	      1.33757738	      0.25524944	      0.91772812	      0.35285444	     25.17230836	     -5.24560882	    -10.51053832	    -61.48777808	      2.59928596	      5.33148372	     10.90636806	      4.87166440	      6.76502269	     -2.11267614	    -11.49909763	      8.91558837	     -5.50387344	      4.15874284	     -4.22106668	     -4.91388584	     -0.90084029
      1.37966667	     -2.75199707	      2.18910333	      1.54590014	      0.26022623	      0.91845889	      0.35249563	     25.33474956	     -5.05099638	    -10.50275373	    -60.21421939	      2.81824608	      5.18502294	     10.86559643	      4.12266197	      6.61625783	     -1.85366737	    -10.98021200	      8.89945419	     -5.49433492	      4.14227717	     -4.41993833	     -4.70535454	     -1.12496958
